<?xml version="1.0" encoding="UTF-8" standalone="no"?><!DOCTYPE svg PUBLIC "-//W3C//DTD SVG 1.1//EN" "http://www.w3.org/Graphics/SVG/1.1/DTD/svg11.dtd"><svg width="100%" height="100%" viewBox="0 0 80 80" version="1.1" xmlns="http://www.w3.org/2000/svg" xmlns:xlink="http://www.w3.org/1999/xlink" xml:space="preserve" style="fill-rule:evenodd;clip-rule:evenodd;stroke-linecap:round;stroke-linejoin:round;stroke-miterlimit:1.41421;"><circle cx="39.614" cy="39.614" r="37.882" style="fill:#fff;stroke-width:2px;stroke:#000;"/><circle cx="39.614" cy="39.614" r="35.285" style="fill:#000;"/><g><path d="M29.15,12.626l4.08,10.848l0.048,0l4.104,-10.848l4.752,0l0,1.944l-0.792,0.072c-0.48,0.048 -0.712,0.328 -0.696,0.84l0.6,10.992l1.488,0.072l0,2.04l-5.784,0l0,-1.944l0.864,-0.072c0.432,-0.032 0.64,-0.24 0.624,-0.624l-0.456,-8.472l-0.048,0l-3.696,9.576l-2.28,0l-3.648,-9.48l-0.048,0l-0.48,8.904l1.56,0.072l0,2.04l-5.664,0l0,-1.944l0.864,-0.072c0.368,-0.032 0.568,-0.248 0.6,-0.648l0.648,-11.16l-1.464,-0.096l0,-2.04l4.824,0Z" style="fill:#fff;fill-rule:nonzero;"/><path d="M52.694,12.482l0.552,2.16c-3.424,0.432 -5.336,2.128 -5.736,5.088c1.008,-0.656 2.132,-0.984 3.372,-0.984c1.24,0 2.228,0.416 2.964,1.248c0.736,0.832 1.104,2.012 1.104,3.54c0,1.528 -0.452,2.796 -1.356,3.804c-0.904,1.008 -2.224,1.512 -3.96,1.512c-1.736,0 -3.024,-0.624 -3.864,-1.872c-0.84,-1.248 -1.26,-2.92 -1.26,-5.016c0,-5.712 2.728,-8.872 8.184,-9.48ZM52.142,23.522c0,-1.824 -0.712,-2.736 -2.136,-2.736c-0.416,0 -0.892,0.096 -1.428,0.288c-0.536,0.192 -0.948,0.408 -1.236,0.648c0,0.16 0,0.32 0,0.48c0,1.264 0.184,2.32 0.552,3.168c0.368,0.848 1.008,1.272 1.92,1.272c0.688,0 1.248,-0.276 1.68,-0.828c0.432,-0.552 0.648,-1.316 0.648,-2.292Z" style="fill:#fff;fill-rule:nonzero;"/></g><g><path d="M27.916,49.236l24.273,0.149l-1.178,-1.369l1.723,-0.562l-2.353,-1.791l1.569,-0.908l-2.673,-1.262l1.346,-1.215l-2.876,-0.678l1.065,-1.469l-2.955,-0.063l0.737,-1.66l-2.902,0.554l0.376,-1.776l-2.725,1.147l0,-1.818l-2.428,1.69l-0.376,-1.777l-2.025,2.159l-0.737,-1.659l-1.532,2.533l-1.065,-1.469l-0.973,2.797l-1.347,-1.216l-0.371,2.939l-1.57,-0.908l0.246,2.951l-1.723,-0.561l0.853,2.836l-1.802,-0.19l1.423,2.596ZM49.574,48.926c0.024,0.266 -20.097,0.037 -20.093,0c0.461,-5.154 4.783,-9.193 10.046,-9.193c5.263,0 9.585,4.039 10.047,9.193ZM46.198,43.157c-1.709,-1.711 -4.065,-2.769 -6.671,-2.769c-2.606,0 -4.962,1.058 -6.67,2.769c-1.505,1.509 -2.503,3.522 -2.719,5.767c-0.029,0.302 18.808,0.302 18.779,0c-0.216,-2.245 -1.214,-4.258 -2.719,-5.767ZM41.674,48.92c0.059,0.14 -2.235,0.136 -2.235,0.136c0,0 -2.116,0.004 -2.057,-0.136c0.355,-0.839 1.179,-1.417 2.145,-1.417c0.967,0 1.792,0.578 2.147,1.417Z" style="fill:#fff;fill-rule:nonzero;"/><rect x="22.824" y="48.92" width="33.579" height="0.764" style="fill:#fff;"/></g><path d="M46.314,48.034c-0.011,-0.058 -0.022,-0.123 -0.036,-0.193c-0.005,-0.022 -0.01,-0.044 -0.015,-0.066c-0.011,-0.051 -0.023,-0.104 -0.036,-0.161c-0.008,-0.04 -0.021,-0.081 -0.032,-0.124c-0.012,-0.043 -0.024,-0.087 -0.036,-0.132c-0.011,-0.045 -0.027,-0.091 -0.042,-0.138c-0.015,-0.047 -0.03,-0.095 -0.045,-0.144c-0.015,-0.049 -0.036,-0.098 -0.053,-0.149c-0.019,-0.051 -0.037,-0.103 -0.057,-0.155c-0.022,-0.052 -0.044,-0.104 -0.066,-0.158c-0.011,-0.027 -0.023,-0.054 -0.034,-0.081c-0.012,-0.027 -0.025,-0.054 -0.037,-0.081c-0.026,-0.055 -0.052,-0.11 -0.078,-0.166c-0.027,-0.055 -0.057,-0.111 -0.086,-0.167c-0.015,-0.028 -0.03,-0.057 -0.045,-0.085c-0.015,-0.029 -0.032,-0.056 -0.048,-0.085c-0.033,-0.056 -0.066,-0.114 -0.099,-0.171c-0.141,-0.227 -0.299,-0.458 -0.479,-0.683c-0.182,-0.223 -0.383,-0.442 -0.601,-0.65c-0.221,-0.206 -0.459,-0.4 -0.708,-0.578c-0.064,-0.043 -0.128,-0.087 -0.191,-0.129c-0.031,-0.023 -0.064,-0.042 -0.097,-0.062c-0.033,-0.02 -0.065,-0.04 -0.098,-0.06c-0.032,-0.02 -0.065,-0.04 -0.097,-0.06c-0.034,-0.019 -0.067,-0.037 -0.101,-0.056c-0.033,-0.018 -0.066,-0.036 -0.099,-0.055c-0.034,-0.018 -0.066,-0.037 -0.1,-0.053c-0.068,-0.034 -0.136,-0.067 -0.202,-0.1c-0.017,-0.009 -0.034,-0.017 -0.05,-0.025c-0.017,-0.008 -0.035,-0.015 -0.052,-0.023c-0.034,-0.015 -0.068,-0.03 -0.101,-0.045c-0.034,-0.014 -0.068,-0.029 -0.101,-0.044c-0.017,-0.007 -0.033,-0.015 -0.05,-0.022c-0.017,-0.006 -0.034,-0.013 -0.051,-0.019c-0.068,-0.027 -0.136,-0.052 -0.202,-0.078c-0.016,-0.006 -0.033,-0.013 -0.049,-0.019c-0.017,-0.006 -0.034,-0.011 -0.051,-0.017c-0.033,-0.011 -0.066,-0.022 -0.099,-0.033c-0.033,-0.011 -0.066,-0.022 -0.099,-0.033c-0.032,-0.011 -0.064,-0.023 -0.097,-0.031c-0.066,-0.019 -0.13,-0.037 -0.193,-0.056c-0.032,-0.009 -0.063,-0.018 -0.094,-0.027c-0.031,-0.007 -0.063,-0.015 -0.093,-0.022c-0.124,-0.029 -0.242,-0.061 -0.357,-0.081c-0.058,-0.011 -0.114,-0.022 -0.168,-0.032c-0.027,-0.005 -0.054,-0.011 -0.081,-0.015c-0.026,-0.004 -0.052,-0.008 -0.078,-0.012c-0.104,-0.015 -0.201,-0.031 -0.291,-0.043c-0.091,-0.009 -0.174,-0.018 -0.249,-0.026c-0.037,-0.004 -0.073,-0.008 -0.107,-0.011c-0.034,-0.002 -0.065,-0.005 -0.095,-0.006c-0.059,-0.004 -0.109,-0.008 -0.15,-0.01c-0.081,-0.005 -0.124,-0.008 -0.124,-0.008l0,0c0,0 0.043,-0.001 0.125,-0.003c0.04,-0.001 0.091,-0.002 0.15,-0.004c0.03,-0.001 0.061,-0.001 0.095,-0.002c0.034,0 0.07,0.001 0.109,0.001c0.076,0.002 0.161,0.003 0.254,0.005c0.092,0.003 0.191,0.011 0.298,0.016c0.027,0.002 0.054,0.004 0.081,0.005c0.028,0.002 0.056,0.006 0.084,0.008c0.056,0.006 0.115,0.012 0.174,0.018c0.12,0.01 0.244,0.031 0.375,0.05c0.032,0.004 0.065,0.009 0.099,0.014c0.032,0.007 0.066,0.013 0.099,0.019c0.068,0.013 0.136,0.026 0.206,0.039c0.035,0.006 0.07,0.015 0.105,0.023c0.035,0.009 0.07,0.017 0.105,0.025c0.036,0.009 0.072,0.017 0.108,0.026c0.018,0.004 0.036,0.008 0.055,0.013c0.018,0.004 0.036,0.01 0.054,0.015c0.072,0.02 0.145,0.041 0.219,0.062c0.019,0.005 0.038,0.01 0.056,0.015c0.019,0.006 0.037,0.012 0.056,0.018c0.037,0.013 0.074,0.025 0.111,0.037c0.037,0.012 0.075,0.025 0.113,0.037c0.019,0.007 0.038,0.013 0.056,0.019c0.019,0.007 0.038,0.015 0.056,0.022c0.075,0.028 0.15,0.057 0.227,0.086c0.038,0.014 0.074,0.031 0.112,0.047c0.038,0.016 0.075,0.032 0.113,0.049c0.038,0.016 0.076,0.032 0.114,0.049c0.037,0.018 0.074,0.036 0.111,0.054c0.038,0.018 0.075,0.036 0.113,0.054c0.037,0.019 0.075,0.036 0.111,0.057c0.074,0.039 0.148,0.079 0.222,0.119c0.291,0.166 0.574,0.352 0.842,0.552c0.264,0.203 0.513,0.42 0.743,0.646c0.227,0.227 0.433,0.462 0.621,0.697c0.044,0.059 0.089,0.119 0.133,0.177c0.022,0.03 0.044,0.059 0.065,0.088c0.021,0.03 0.041,0.06 0.061,0.089c0.04,0.059 0.081,0.117 0.119,0.175c0.037,0.059 0.073,0.117 0.109,0.174c0.018,0.029 0.036,0.057 0.053,0.086c0.017,0.029 0.033,0.057 0.049,0.086c0.033,0.056 0.064,0.112 0.096,0.167c0.03,0.056 0.057,0.111 0.085,0.165c0.028,0.054 0.057,0.107 0.081,0.159c0.024,0.053 0.048,0.105 0.072,0.155c0.023,0.051 0.047,0.1 0.066,0.149c0.02,0.048 0.04,0.096 0.059,0.142c0.019,0.046 0.039,0.091 0.054,0.135c0.032,0.088 0.062,0.17 0.09,0.246c0.026,0.077 0.048,0.148 0.068,0.211c0.011,0.032 0.02,0.063 0.029,0.091c0.009,0.029 0.016,0.056 0.023,0.081c0.009,0.035 0.018,0.066 0.025,0.093l-0.602,0l-0.23,0l-0.363,0c-0.005,-0.024 -0.009,-0.05 -0.014,-0.077Z" style="fill:#000;fill-rule:nonzero;"/><g><path d="M22.451,57.407l-1.611,4.553l0.016,0.012l4.219,-2.356l1.514,1.275l-0.521,0.62l-0.272,-0.19c-0.166,-0.113 -0.315,-0.086 -0.447,0.081l-2.759,3.665l0.455,0.422l-0.547,0.65l-1.844,-1.552l0.522,-0.619l0.295,0.209c0.146,0.105 0.268,0.095 0.366,-0.032l2.128,-2.823l-0.015,-0.013l-3.748,2.061l-0.727,-0.612l1.381,-4.001l-0.015,-0.012l-2.542,2.709l0.478,0.441l-0.548,0.651l-1.805,-1.52l0.521,-0.62l0.295,0.209c0.126,0.089 0.248,0.073 0.365,-0.045l3.202,-3.384l-0.441,-0.423l0.547,-0.651l1.538,1.295Z" style="fill:#fff;fill-rule:nonzero;"/><path d="M28.149,62.812l-1.322,3.045c-0.185,0.429 -0.214,0.774 -0.085,1.037c0.13,0.264 0.385,0.478 0.768,0.644c0.382,0.166 0.719,0.2 1.013,0.102c0.293,-0.098 0.519,-0.33 0.679,-0.697l1.457,-3.358l-0.52,-0.258l0.339,-0.78l2.173,0.944l-0.322,0.743l-0.315,-0.104c-0.185,-0.058 -0.314,-0.005 -0.385,0.16l-1.422,3.275c-0.257,0.593 -0.667,0.967 -1.229,1.123c-0.562,0.156 -1.21,0.074 -1.943,-0.244c-0.734,-0.319 -1.218,-0.723 -1.452,-1.214c-0.234,-0.49 -0.197,-1.09 0.111,-1.799l1.461,-3.367l-0.52,-0.258l0.338,-0.78l2.22,0.964l-0.322,0.743l-0.315,-0.104c-0.103,-0.03 -0.185,-0.035 -0.245,-0.014c-0.06,0.021 -0.114,0.087 -0.162,0.197Z" style="fill:#fff;fill-rule:nonzero;"/><path d="M36.753,70.895l-4.685,-0.784l0.134,-0.799l0.33,0.025c0.194,0.012 0.305,-0.064 0.332,-0.228l0.769,-4.587l-0.558,-0.123l0.141,-0.839l4.517,0.757l-0.274,1.637l-1.018,-0.099l0.066,-0.395c0.019,-0.112 0.016,-0.193 -0.01,-0.245c-0.025,-0.051 -0.1,-0.088 -0.225,-0.108l-1.459,-0.245l-0.283,1.687l2.278,0.381l-0.168,1.006l-2.278,-0.381l-0.309,1.844l1.588,0.266c0.118,0.02 0.198,0.008 0.239,-0.036c0.041,-0.044 0.071,-0.122 0.09,-0.234l0.082,-0.493l0.995,0.238l-0.294,1.755Z" style="fill:#fff;fill-rule:nonzero;"/><path d="M38.711,64.406l2.814,-0.194c1.436,-0.099 2.193,0.407 2.27,1.517c0.042,0.612 -0.232,1.099 -0.822,1.46c0.399,0.073 0.72,0.235 0.961,0.485c0.241,0.251 0.376,0.589 0.406,1.015c0.044,0.645 -0.14,1.152 -0.552,1.521c-0.412,0.37 -1.034,0.583 -1.865,0.64l-2.804,0.194l-0.055,-0.808l0.327,-0.053c0.191,-0.033 0.281,-0.133 0.27,-0.299l-0.32,-4.639l-0.571,0.009l-0.059,-0.848ZM40.746,67.894l0.144,2.085l0.938,-0.064c0.865,-0.06 1.273,-0.442 1.224,-1.147c-0.023,-0.333 -0.149,-0.58 -0.377,-0.741c-0.228,-0.161 -0.542,-0.228 -0.941,-0.201l-0.988,0.068ZM40.561,65.201l0.124,1.805l0.738,-0.05c0.413,-0.029 0.711,-0.135 0.896,-0.318c0.184,-0.183 0.266,-0.428 0.245,-0.734c-0.021,-0.305 -0.134,-0.515 -0.339,-0.628c-0.205,-0.112 -0.491,-0.156 -0.856,-0.131l-0.808,0.056Z" style="fill:#fff;fill-rule:nonzero;"/><path d="M51.213,68.81l-4.534,1.416l-0.241,-0.774l0.306,-0.127c0.178,-0.076 0.243,-0.194 0.193,-0.353l-1.386,-4.439l-0.553,0.141l-0.253,-0.811l2.301,-0.718l0.241,0.773l-0.306,0.127c-0.179,0.077 -0.239,0.207 -0.182,0.392l1.329,4.257l1.585,-0.495c0.089,-0.027 0.14,-0.07 0.154,-0.126c0.014,-0.057 0.004,-0.139 -0.03,-0.248l-0.208,-0.668l0.994,-0.237l0.59,1.89Z" style="fill:#fff;fill-rule:nonzero;"/><path d="M57.374,65.517l-4.106,2.388l-0.407,-0.701l0.27,-0.191c0.157,-0.115 0.194,-0.244 0.11,-0.388l-2.337,-4.02l-0.508,0.26l-0.427,-0.735l3.96,-2.301l0.834,1.435l-0.847,0.573l-0.201,-0.346c-0.057,-0.098 -0.111,-0.159 -0.164,-0.182c-0.052,-0.024 -0.133,-0.004 -0.242,0.06l-1.28,0.744l0.86,1.478l1.997,-1.161l0.512,0.882l-1.997,1.161l0.94,1.616l1.392,-0.809c0.104,-0.06 0.157,-0.12 0.161,-0.18c0.004,-0.06 -0.023,-0.139 -0.08,-0.237l-0.251,-0.432l0.917,-0.453l0.894,1.539Z" style="fill:#fff;fill-rule:nonzero;"/><path d="M60.162,62.039c0.585,-0.546 0.659,-1.053 0.223,-1.521c-0.228,-0.244 -0.525,-0.304 -0.892,-0.18c-0.201,0.059 -0.437,0.161 -0.708,0.305c-0.272,0.143 -0.508,0.252 -0.708,0.325c-0.201,0.073 -0.425,0.124 -0.671,0.153c-0.488,0.054 -0.939,-0.142 -1.355,-0.588c-0.416,-0.446 -0.589,-0.942 -0.518,-1.487c0.071,-0.544 0.356,-1.05 0.856,-1.516c0.5,-0.465 1.058,-0.799 1.673,-0.999l1.023,1.097l-0.698,0.747l-0.396,-0.424c-0.068,-0.073 -0.128,-0.118 -0.179,-0.134c-0.14,-0.042 -0.355,0.072 -0.645,0.342c-0.29,0.271 -0.457,0.522 -0.501,0.754c-0.043,0.232 0.035,0.455 0.235,0.67c0.146,0.156 0.331,0.238 0.558,0.246c0.15,0.005 0.326,-0.039 0.528,-0.131c0.201,-0.092 0.413,-0.191 0.636,-0.299c0.223,-0.108 0.432,-0.193 0.625,-0.254c0.193,-0.062 0.415,-0.105 0.666,-0.129c0.502,-0.058 0.967,0.142 1.394,0.601c0.427,0.458 0.599,0.972 0.515,1.542c-0.083,0.571 -0.394,1.107 -0.933,1.609c-0.539,0.503 -1.116,0.854 -1.732,1.054l-1.077,-1.156l0.698,-0.746l0.416,0.446c0.068,0.073 0.128,0.117 0.179,0.133c0.052,0.016 0.142,-0.007 0.272,-0.068c0.129,-0.062 0.301,-0.192 0.516,-0.392Z" style="fill:#fff;fill-rule:nonzero;"/></g></svg>